<mxfile host="app.diagrams.net" modified="2024-01-05T01:44:50.098Z" agent="Mozilla/5.0 (Windows NT 10.0; Win64; x64) AppleWebKit/537.36 (KHTML, like Gecko) Chrome/120.0.0.0 Safari/537.36" etag="O-9iYjAHoX3RzA3962VU" version="22.1.16" type="github">
  <diagram name="Страница — 1" id="bxLkuecv-xS-_OOY5c18">
    <mxGraphModel dx="3500" dy="1767" grid="0" gridSize="10" guides="1" tooltips="1" connect="1" arrows="1" fold="1" page="1" pageScale="1" pageWidth="3300" pageHeight="2339" math="0" shadow="0">
      <root>
        <mxCell id="0" />
        <mxCell id="1" parent="0" />
        <mxCell id="jfCUDYP0qCq6zPnpmoqM-5" value="Cleaner" style="swimlane;childLayout=stackLayout;horizontal=1;startSize=50;horizontalStack=0;rounded=1;fontSize=14;fontStyle=0;strokeWidth=2;resizeParent=0;resizeLast=1;shadow=0;dashed=0;align=center;arcSize=4;whiteSpace=wrap;html=1;" vertex="1" parent="1">
          <mxGeometry x="910" y="400" width="160" height="120" as="geometry">
            <mxRectangle x="310" y="120" width="90" height="50" as="alternateBounds" />
          </mxGeometry>
        </mxCell>
        <mxCell id="jfCUDYP0qCq6zPnpmoqM-6" value="+ID&lt;br&gt;+name&lt;br&gt;+position_id&lt;br&gt;+experiense" style="align=left;strokeColor=none;fillColor=none;spacingLeft=4;fontSize=12;verticalAlign=top;resizable=0;rotatable=0;part=1;html=1;" vertex="1" parent="jfCUDYP0qCq6zPnpmoqM-5">
          <mxGeometry y="50" width="160" height="70" as="geometry" />
        </mxCell>
        <mxCell id="jfCUDYP0qCq6zPnpmoqM-7" value="Position" style="swimlane;childLayout=stackLayout;horizontal=1;startSize=50;horizontalStack=0;rounded=1;fontSize=14;fontStyle=0;strokeWidth=2;resizeParent=0;resizeLast=1;shadow=0;dashed=0;align=center;arcSize=4;whiteSpace=wrap;html=1;" vertex="1" parent="1">
          <mxGeometry x="1200" y="320" width="160" height="120" as="geometry">
            <mxRectangle x="600" y="40" width="90" height="50" as="alternateBounds" />
          </mxGeometry>
        </mxCell>
        <mxCell id="jfCUDYP0qCq6zPnpmoqM-8" value="+ID&lt;br&gt;+title" style="align=left;strokeColor=none;fillColor=none;spacingLeft=4;fontSize=12;verticalAlign=top;resizable=0;rotatable=0;part=1;html=1;" vertex="1" parent="jfCUDYP0qCq6zPnpmoqM-7">
          <mxGeometry y="50" width="160" height="70" as="geometry" />
        </mxCell>
        <mxCell id="jfCUDYP0qCq6zPnpmoqM-12" style="edgeStyle=orthogonalEdgeStyle;rounded=0;orthogonalLoop=1;jettySize=auto;html=1;exitX=1;exitY=0.25;exitDx=0;exitDy=0;entryX=0;entryY=0.25;entryDx=0;entryDy=0;" edge="1" parent="1" source="jfCUDYP0qCq6zPnpmoqM-6" target="jfCUDYP0qCq6zPnpmoqM-8">
          <mxGeometry relative="1" as="geometry" />
        </mxCell>
      </root>
    </mxGraphModel>
  </diagram>
</mxfile>
